HIERARCHY
ROOT Hips
{
	OFFSET 0.00000 0.00000 0.00000
	CHANNELS 6 Xposition Yposition Zposition Zrotation Yrotation Xrotation 
	JOINT LHipJoint
	{
		OFFSET 0 0 0
		CHANNELS 3 Zrotation Yrotation Xrotation
		JOINT LeftHip
		{
			OFFSET 1.36337 -1.57426 1.11036
			CHANNELS 3 Zrotation Yrotation Xrotation
			JOINT LeftKnee
			{
				OFFSET 2.38468 -6.55187 0.00000
				CHANNELS 3 Zrotation Yrotation Xrotation
				JOINT LeftAnkle
				{
					OFFSET 2.37166 -6.51609 0.00000
					CHANNELS 3 Zrotation Yrotation Xrotation
					JOINT LeftToe
					{
						OFFSET 0.29078 -0.79891 2.01393
						CHANNELS 3 Zrotation Yrotation Xrotation
						End Site
						{
							OFFSET 0.00000 -0.00000 1.07924
						}
					}
				}
			}
		}
	}
	JOINT RHipJoint
	{
		OFFSET 0 0 0
		CHANNELS 3 Zrotation Yrotation Xrotation
		JOINT RightHip
		{
			OFFSET -1.36349 -1.57426 1.11036
			CHANNELS 3 Zrotation Yrotation Xrotation
			JOINT RightKnee
			{
				OFFSET -2.29562 -6.30717 0.00000
				CHANNELS 3 Zrotation Yrotation Xrotation
				JOINT RightAnkle
				{
					OFFSET -2.40985 -6.62100 0.00000
					CHANNELS 3 Zrotation Yrotation Xrotation
					JOINT RightToe
					{
						OFFSET -0.23197 -0.63733 1.92232
						CHANNELS 3 Zrotation Yrotation Xrotation
						End Site
						{
							OFFSET -0.00000 -0.00000 1.01562
						}
					}
				}
			}
		}
	}
	JOINT lowerback
	{
		OFFSET 0 0 0
		CHANNELS 3 Zrotation Yrotation Xrotation
		JOINT Chest
		{
			OFFSET -0.08565 2.03602 -0.24562
			CHANNELS 3 Zrotation Yrotation Xrotation
			JOINT Chest2
			{
				OFFSET -0.00036 2.05693 0.00216
				CHANNELS 3 Zrotation Yrotation Xrotation
				JOINT lowerneck
				{
					OFFSET 0 0 0
					CHANNELS 3 Zrotation Yrotation Xrotation
					JOINT Neck
					{
						OFFSET -0.03664 1.69515 0.31789
						CHANNELS 3 Zrotation Yrotation Xrotation
						JOINT Head
						{
							OFFSET 0.00932 1.70181 -0.46013
							CHANNELS 3 Zrotation Yrotation Xrotation
							End Site
							{
								OFFSET 0.01243 1.77620 -0.19377
							}
						}
					}
				}
				JOINT LeftCollar
				{
					OFFSET 0 0 0
					CHANNELS 3 Zrotation Yrotation Xrotation
					JOINT LeftShoulder
					{
						OFFSET 3.74344 0.81315 -0.36647
CHANNELS 3 Zrotation Xrotation Yrotation
						JOINT LeftElbow
						{
OFFSET 0 -4.971850 -0.000000
CHANNELS 3 Zrotation Xrotation Yrotation
							JOINT LeftWrist
							{
OFFSET 0 -3.358110 0.000000
CHANNELS 3 Zrotation Xrotation Yrotation
								JOINT lhand
								{
									OFFSET 0 0 0
CHANNELS 3 Zrotation Xrotation Yrotation
									JOINT LFingers
									{
OFFSET 0 -0.622780 0.000000
CHANNELS 3 Zrotation Xrotation Yrotation
										End Site
										{
OFFSET 0 -0.502100 0.000000
										}
									}
								}
								JOINT LThumb
								{
OFFSET 0 0.000000 0.000000
CHANNELS 3 Zrotation Xrotation Yrotation
									End Site
									{
OFFSET 0 -0.509760 0.509760
									}
								}
							}
						}
					}
				}
				JOINT RightCollar
				{
					OFFSET 0 0 0
					CHANNELS 3 Zrotation Yrotation Xrotation
					JOINT RightShoulder
					{
						OFFSET -3.75385 0.50666 -0.06525
CHANNELS 3 Zrotation Xrotation Yrotation
						JOINT RightElbow
						{
OFFSET 0 -4.964930 -0.000000
CHANNELS 3 Zrotation Xrotation Yrotation
							JOINT RightWrist
							{
OFFSET 0 -3.349290 0.000000
CHANNELS 3 Zrotation Xrotation Yrotation
								JOINT rhand
								{
									OFFSET 0 0 0
CHANNELS 3 Zrotation Xrotation Yrotation
									JOINT RFingers
									{
OFFSET 0 -0.638040 0.000000
CHANNELS 3 Zrotation Xrotation Yrotation
										End Site
										{
OFFSET 0 -0.514410 0.000000
										}
									}
								}
								JOINT RThumb
								{
OFFSET 0 0.000000 0.000000
CHANNELS 3 Zrotation Xrotation Yrotation
									End Site
									{
OFFSET 0 -0.522260 0.522260
									}
								}
							}
						}
					}
				}
			}
		}
	}
}
MOTION
Frames: 10
Frame Time: 0.008333333333333333
-21.371800 16.152200 -3.988400 134.952000 75.419800 156.933000 0.000000 0.000000 0.000000 -17.304400 -7.615000 -39.725700 2.642600 10.092600 29.277200 0.075600 7.046000 -11.651300 0.298500 -3.512800 -9.709700 0.000000 0.000000 0.000000 0.786500 -3.726000 -44.408200 -5.118300 -13.515800 41.331200 -1.032100 -7.342800 -23.179100 -0.004500 -0.431100 1.184400 -7.157800 0.390600 11.326600 -2.158100 0.337700 7.337000 1.739200 0.167000 1.358300 -3.394000 -1.987500 -29.020200 2.190600 -1.699500 30.536000 1.179800 -0.660100 15.720100 0.000000 0.000000 0.000000 1.523700 -22.498100 -71.644900 33.233000 -43.508400 13.582200 -27.562400 -48.646400 -6.665400 0.000000 0.000000 0.000000 -7.125000 0.000000 0.000000 -41.258000 33.169900 -15.812700 0.000000 0.000000 0.000000 -6.040600 -9.796300 23.531200 -16.161400 -25.739000 -3.715800 -9.966300 -19.879800 28.667100 0.000000 0.000000 0.000000 7.125000 0.000000 -0.000000 22.911700 57.509600 -7.273200
-21.494024 16.160830 -4.118683 162.162392 78.207797 182.248322 0.000000 0.000000 0.000000 -9.947484 -6.526186 -41.069820 3.381970 11.286810 33.256104 0.215686 5.620152 -12.622560 0.141031 -2.414665 -6.653278 0.000000 0.000000 0.000000 8.326192 -3.422503 -42.064110 -4.425893 -12.705373 38.277220 -0.848206 -7.435186 -21.627517 -0.001759 -0.260801 0.716549 -0.332437 -0.524479 14.648619 -0.440165 -0.223971 7.789596 -0.237906 0.092135 0.008389 -2.705559 -1.252996 -27.489332 2.028933 -0.935748 29.966585 1.146678 -0.288952 15.090009 0.000000 0.000000 0.000000 1.646134 -22.278728 -85.890515 33.162498 -43.453085 13.534186 9.690890 -27.717060 10.524083 0.000000 0.000000 0.000000 -7.125000 0.000000 0.000000 -12.131957 19.432922 -7.859028 0.000000 0.000000 0.000000 -5.439510 -9.140251 25.250556 -15.597119 -24.971125 -3.474278 -5.965244 -26.293945 28.832212 0.000000 0.000000 0.000000 7.125000 0.000000 0.000000 27.010496 56.824340 -8.237002
-21.588434 16.143857 -4.231462 171.516068 78.622003 191.451100 0.000000 0.000000 0.000000 -8.021402 -6.403128 -42.767300 3.873146 11.989098 35.694282 0.282831 5.074415 -13.200721 0.075622 -1.742742 -4.796032 0.000000 0.000000 0.000000 10.331578 -3.600145 -41.785510 -4.142576 -12.347710 36.973353 -0.707567 -7.484447 -20.327988 -0.000904 -0.190514 0.523382 0.568346 -1.389147 16.891181 0.815854 -1.119690 8.357879 0.722336 -0.315200 -0.556559 -3.534726 -0.530967 -27.383516 1.924378 0.481544 29.289953 1.516194 0.182269 14.714504 0.000000 0.000000 0.000000 -0.606685 -24.110885 -93.106742 33.807810 -43.941761 13.979525 20.646027 -20.804439 9.619564 0.000000 0.000000 0.000000 -7.125000 0.000000 0.000000 -4.511338 19.728954 -2.730268 0.000000 0.000000 0.000000 -6.290267 -9.312038 28.022522 -15.510170 -24.851974 -3.437461 -1.664701 -34.333896 29.712943 0.000000 0.000000 0.000000 7.125000 0.000000 0.000000 31.876998 56.700346 -9.834441
-21.646879 16.123704 -4.379957 172.238723 79.856855 192.786471 0.000000 0.000000 0.000000 -8.029723 -6.311226 -44.224523 4.199612 12.421070 37.238858 0.351599 5.041193 -14.194992 0.034737 -1.198477 -3.295230 0.000000 0.000000 0.000000 9.761592 -2.499584 -42.519915 -4.120869 -12.319493 36.871773 -0.663725 -7.441785 -19.856379 -0.003292 -0.371929 1.022014 0.172122 -1.502746 18.380816 0.879762 -1.240868 8.831395 1.055867 -0.360728 -0.809671 -3.795161 -0.200828 -28.380246 2.132259 1.013041 29.248857 1.759390 0.394632 14.882456 0.000000 0.000000 0.000000 -2.154653 -26.085930 -98.727912 34.863280 -44.713874 14.717173 20.910525 -20.443401 12.427448 0.000000 0.000000 0.000000 -7.125000 0.000000 0.000000 -4.393788 16.730996 -2.951215 0.000000 0.000000 0.000000 -6.181390 -9.216918 31.264235 -15.985784 -25.500585 -3.640265 2.012401 -41.458731 31.004141 0.000000 0.000000 0.000000 7.125000 0.000000 0.000000 36.470884 57.007809 -11.795025
-21.672592 16.090425 -4.559014 175.146676 80.739546 195.768394 0.000000 0.000000 0.000000 -7.935783 -6.061229 -45.155364 4.581636 12.895861 38.981207 0.463366 4.454459 -15.266222 0.008830 -0.592805 -1.629077 0.000000 0.000000 0.000000 9.510667 -2.006764 -42.498462 -4.068552 -12.251038 36.626027 -0.645609 -7.116099 -19.406123 -0.005180 -0.461771 1.268796 -0.074917 -1.550408 20.176077 1.055085 -1.261156 9.100965 1.415760 -0.355923 -1.421915 -3.955485 -0.061903 -28.773495 2.662089 1.090501 29.027965 2.020400 0.484674 14.854836 0.000000 0.000000 0.000000 -3.969350 -27.136832 -104.002871 35.496033 -45.162895 15.164128 22.674295 -22.046469 15.705970 0.000000 0.000000 0.000000 -7.125000 0.000000 0.000000 -3.426103 12.945226 -2.424002 0.000000 0.000000 0.000000 -6.067990 -8.295057 35.586435 -17.287094 -27.233965 -4.218267 5.920853 -49.367433 32.347706 0.000000 0.000000 0.000000 7.125000 0.000000 0.000000 41.353432 57.238393 -14.006785
-21.678623 16.058549 -4.763713 176.571234 81.785594 197.576227 0.000000 0.000000 0.000000 -8.388292 -5.561199 -46.614808 5.057805 13.448082 41.070778 0.623160 3.518425 -16.601604 0.006146 -0.501583 -1.378387 0.000000 0.000000 0.000000 8.753816 -1.424378 -43.123701 -4.093398 -12.283569 36.742820 -0.586965 -7.132467 -18.800544 -0.000621 0.156398 -0.429660 -0.327905 -1.512097 20.973029 0.811910 -1.231028 9.329066 1.307259 -0.330596 -1.576573 -4.072598 -0.064094 -29.434885 3.632603 0.800472 28.844319 2.388777 0.494515 14.914274 0.000000 0.000000 0.000000 -5.413810 -28.055765 -108.120886 35.395252 -45.092257 15.092614 21.432448 -17.744969 15.820411 0.000000 0.000000 0.000000 -7.125000 0.000000 0.000000 -4.191690 13.081258 -3.140553 0.000000 0.000000 0.000000 -4.767142 -8.152790 37.487017 -18.446398 -28.724339 -4.762166 10.408300 -60.750073 35.075073 0.000000 0.000000 0.000000 7.125000 0.000000 0.000000 48.247541 58.262371 -18.367744
-21.704734 15.976034 -5.049391 189.970175 84.870638 212.759404 0.000000 0.000000 0.000000 -8.069506 -4.256173 -49.979260 5.733019 14.163408 43.898442 0.798774 3.395057 -18.442878 0.001399 -0.214836 -0.590325 0.000000 0.000000 0.000000 8.155452 1.239132 -45.549049 -4.128233 -12.329105 36.906270 -0.467010 -6.898253 -17.250060 -0.016525 0.817101 -2.245826 -0.243562 -0.658187 19.640847 0.393841 -0.211893 9.191384 0.591716 0.149983 -1.081026 -4.298834 -0.321290 -29.948418 4.434710 0.242730 28.070445 2.628391 0.357918 14.700869 0.000000 0.000000 0.000000 -6.431146 -28.610264 -111.226149 34.593497 -44.519516 14.527689 20.860786 -15.009761 14.270434 0.000000 0.000000 0.000000 -7.125000 0.000000 0.000000 -4.499087 14.786843 -3.213575 0.000000 0.000000 0.000000 -4.317614 -7.325554 38.269993 -19.814957 -30.417480 -5.438013 17.811883 -71.805302 38.283023 0.000000 0.000000 0.000000 7.125000 0.000000 0.000000 58.417467 58.653259 -24.624184
-21.645963 15.917653 -5.320069 201.345713 85.624985 224.303967 0.000000 0.000000 0.000000 -8.078653 -4.120351 -50.895086 6.296995 14.709834 46.161818 0.997480 2.712902 -20.026055 0.007259 0.531633 1.460929 0.000000 0.000000 0.000000 7.588620 2.161411 -45.237539 -4.053805 -12.231581 36.556432 -0.370901 -7.557605 -16.678562 -0.100546 2.025894 -5.577891 -0.015421 -0.422869 19.728045 0.181219 0.093254 8.962420 0.175245 0.300023 -1.375896 -4.495432 -0.737694 -30.054078 5.350107 -0.582680 27.366589 2.851391 0.129622 14.466359 0.000000 0.000000 0.000000 -6.765289 -27.672669 -110.151060 33.726662 -43.880935 13.923315 17.015652 -10.334929 12.427456 0.000000 0.000000 0.000000 -7.125000 0.000000 0.000000 -7.100256 17.058309 -4.734962 0.000000 0.000000 0.000000 -4.748853 -5.898782 39.534240 -21.181383 -32.038120 -6.146459 17.439823 -73.400035 39.249934 0.000000 0.000000 0.000000 7.125000 0.000000 0.000000 59.349011 59.328058 -26.197620
-21.486317 15.937932 -5.570089 184.597536 85.223326 204.854985 0.000000 0.000000 0.000000 -10.294953 -4.696625 -47.145696 6.471125 14.869807 46.844369 1.182087 1.630437 -21.189272 0.018006 0.865476 2.378832 0.000000 0.000000 0.000000 5.548592 1.398333 -40.434749 -3.911934 -12.042261 35.881816 -0.366352 -8.967903 -18.015652 -0.144729 2.451675 -6.755530 -1.227697 -0.755944 22.224275 0.065364 -0.466680 9.362113 0.865552 0.042197 -2.177136 -4.747235 -1.077643 -29.846677 5.903868 -1.140350 25.903803 2.955420 -0.054939 13.837426 0.000000 0.000000 0.000000 -6.391305 -27.417412 -108.868100 33.672195 -43.840361 13.885518 11.130163 -7.489908 12.469480 0.000000 0.000000 0.000000 -7.125000 0.000000 0.000000 -11.168936 17.421740 -7.455801 0.000000 0.000000 0.000000 -6.118742 -4.741973 42.140818 -22.826269 -33.898230 -7.041142 17.983259 -76.316454 41.210470 0.000000 0.000000 0.000000 7.125000 0.000000 0.000000 62.454144 60.325707 -29.779065
-21.360211 15.905063 -5.885393 183.046546 86.150591 202.978723 0.000000 0.000000 0.000000 -11.988089 -4.291478 -46.554874 6.640956 15.021785 47.502584 1.329643 1.644817 -22.435703 0.010479 0.661714 1.818468 0.000000 0.000000 0.000000 3.631907 2.936112 -38.900826 -3.837958 -11.941592 35.525561 -0.311671 -10.372035 -18.894905 -0.224883 3.052504 -8.424895 -1.484397 -0.618558 21.661355 -0.123934 -0.390985 9.091852 0.790021 0.060426 -2.190099 -5.455480 -1.533733 -29.662748 6.568068 -1.661311 24.499133 3.190652 -0.258875 13.265866 0.000000 0.000000 0.000000 -5.406515 -27.290263 -110.357225 34.140422 -44.188513 14.210878 16.706977 -16.873298 13.772727 0.000000 0.000000 0.000000 -7.125000 0.000000 0.000000 -7.324612 15.702772 -5.110642 0.000000 0.000000 0.000000 -7.453446 -3.886195 45.428436 -23.662733 -34.805418 -7.513251 17.255345 -76.716581 40.909290 0.000000 0.000000 0.000000 7.125000 0.000000 0.000000 61.437940 60.342455 -29.086244
